<svg viewBox="0 0 391 391" xmlns="http://www.w3.org/2000/svg"><g><path d="M390.269 186.529l-75-123c-1.27-2.07-3.83-2.94-6.09-2.06l-8.97 3.49 -1.26-2.07c-1.86-3.05-5.64-4.33-8.97-3.03l-94.5 36.81 -94.5-36.817c-3.33-1.3-7.11-.02-8.97 3.02l-1.26 2.06 -8.97-3.5c-2.26-.88-4.83-.02-6.09 2.05l-75 123c-.77 1.25-.95 2.79-.48 4.19 .468 1.39 1.52 2.51 2.899 3.06l106.96 42.39 -13.95 89.69c-.23 1.44.19 2.91 1.14 4.02 .95 1.1 2.33 1.74 3.79 1.74h12.48c1.01 0 1.99-.31 2.83-.88l79.06-54.31 79.06 54.3c.83.57 1.82.87 2.83.87h12.48c1.46 0 2.84-.64 3.79-1.75 .95-1.11 1.36-2.58 1.14-4.03l-13.95-89.69 106.96-42.4c1.37-.55 2.43-1.67 2.89-3.07 .46-1.4.29-2.94-.48-4.2ZM199.5 224.219v-64c0-2.21-1.8-4-4-4 -2.21 0-4 1.79-4 4v64L46.071 166.582l55.33-90.75 91.41 35.619c1.72.67 3.62.67 5.35 0l91.41-35.619 55.334 90.74 -145.43 57.637Z"/><path d="M284.28 106.929c-.81-2.06-3.13-3.08-5.18-2.28l-59 23c-2.06.8-3.08 3.12-2.28 5.18 .61 1.58 2.12 2.54 3.72 2.54 .48 0 .97-.09 1.45-.28l59-23c2.05-.81 3.07-3.122 2.27-5.18Z"/><path d="M229.82 149.63c-2.06.8-3.08 3.12-2.28 5.18 .61 1.58 2.12 2.54 3.72 2.54 .48 0 .97-.09 1.45-.28l59-23c2.05-.81 3.07-3.13 2.27-5.18 -.81-2.06-3.13-3.08-5.18-2.28l-59 23Z"/><path d="M238.062 178.835c.61 1.58 2.12 2.54 3.72 2.54 .48 0 .97-.09 1.45-.28l59-23c2.05-.81 3.07-3.13 2.27-5.18 -.81-2.06-3.13-3.08-5.18-2.28l-59 23c-2.06.8-3.08 3.12-2.28 5.18Z"/><path d="M170.9 127.65l-59-23c-2.06-.81-4.38.21-5.18 2.27 -.81 2.05.21 4.37 2.27 5.18l59 23c.47.18.96.27 1.45.27 1.6 0 3.11-.97 3.72-2.55 .8-2.06-.22-4.38-2.28-5.18Z"/><path d="M161.17 149.63l-59-23c-2.06-.81-4.38.21-5.18 2.27 -.81 2.05.21 4.37 2.27 5.18l59 23c.47.18.96.27 1.45.27 1.6 0 3.11-.97 3.72-2.55 .8-2.06-.22-4.38-2.28-5.18Z"/><path d="M150.664 173.655l-59-23c-2.06-.81-4.38.21-5.18 2.27 -.81 2.05.21 4.37 2.27 5.18l59 23c.47.18.96.27 1.45.27 1.6 0 3.11-.97 3.72-2.55 .8-2.06-.22-4.38-2.28-5.19Z"/></g></svg>