<?xml version="1.0" encoding="utf-8"?>
<svg viewBox="-0.01 0 56.43 58.93" xmlns="http://www.w3.org/2000/svg">
  <path d="m5.12 9.62h.56v5.72c0 2.98 2.44 5.41 5.41 5.41 2.98 0 5.41-2.44 5.41-5.41v-5.72h6.3v5.72c0 2.98 2.44 5.41 5.41 5.41 2.98 0 5.41-2.44 5.41-5.41v-5.72h6.3v5.72c0 2.98 2.44 5.41 5.41 5.41 2.98 0 5.41-2.44 5.41-5.41v-5.72h.56c2.81 0 5.12 2.3 5.12 5.12v10.29h-56.41v-10.29c0-2.81 2.3-5.12 5.12-5.12z" style="fill: rgb(97, 201, 106);"/>
  <path d="m16.5 9.62h6.3v5.72c0 2.98 2.44 5.41 5.41 5.41 2.98 0 5.41-2.44 5.41-5.41v-5.72h6.3v5.72c0 2.98 2.44 5.41 5.41 5.41 2.98 0 5.41-2.44 5.41-5.41v-5.72h.56c2.81 0 5.12 2.3 5.12 5.12v10.29h-47.96v-4.97c.78.44 1.68.69 2.63.69 2.98 0 5.41-2.44 5.41-5.41z" style="fill: rgb(150, 235, 157);"/>
  <path d="m56.41 26.54v27.27c0 2.81-2.3 5.12-5.12 5.12h-46.18c-2.81 0-5.12-2.3-5.12-5.12v-27.27h56.41z" style="fill: rgb(164, 105, 247);"/>
  <path d="m13.57 58.93c-2.81 0-5.12-2.3-5.12-5.12v-27.27h47.96v27.27c0 2.81-2.3 5.12-5.12 5.12h-37.73z" style="fill: rgb(188, 141, 255);"/>
  <g fill="#f6e16e">
    <rect height="19.24" rx="3.9" width="7.81" x="7.18" style="fill: rgb(166, 166, 166);"/>
    <rect height="19.24" rx="3.9" width="7.81" x="24.3" style="fill: rgb(166, 166, 166);"/>
    <rect height="19.24" rx="3.9" width="7.81" x="41.42" style="fill: rgb(166, 166, 166);"/>
  </g>
  <path d="m27.38 42.36c1.77-.96 2.71-2.56 2.71-4.45 0-3.49-2.59-6.07-7.37-6.07-3.1 0-5.65 1.62-6.79 4.03-.27.63.09 1.35.75 1.5l2.89.63c.36.09.72-.06.9-.39.36-.72 1.17-1.26 2.25-1.26 1.41 0 2.37.72 2.37 2.13s-1.02 2.01-2.65 2.01h-1.23c-.42 0-.78.36-.78.81v2.34c0 .45.36.81.78.81h1.23c1.5 0 2.92.54 2.92 2.16 0 1.35-.75 2.47-2.65 2.47-1.62 0-2.47-.75-2.83-1.47-.15-.33-.51-.51-.9-.45l-3.1.72c-.63.15-1.02.81-.78 1.41 1.05 2.71 4.12 4.33 7.61 4.33 4.84 0 7.85-2.56 7.85-6.31 0-2.47-1.17-4.06-3.19-4.96zm9.92-9.86-5.44 3.67c-.48.3-.6.93-.3 1.44l1.02 1.65c.3.51.99.66 1.5.33l2.28-1.53v14.13c0 .6.48 1.08 1.08 1.08h3.01c.6 0 1.08-.48 1.08-1.08v-18.88c0-.6-.48-1.08-1.08-1.08h-2.25c-.3 0-.63.09-.9.27z" fill="#fff" fill-rule="nonzero"/>
</svg>