<?xml version="1.0" encoding="utf-8"?>
<svg viewBox="1.25 1.249 21.5 21.501" xmlns="http://www.w3.org/2000/svg">
  <path d="m2.444 8.894a1.194 1.194 0 0 1 0-2.388h19.112a1.194 1.194 0 0 1 0 2.388z" style="fill: rgb(132, 0, 172);"/>
  <path d="m6.154 22.744a1.193 1.193 0 0 1 -1.075-1.308l1.911-19.109a1.183 1.183 0 0 1 1.175-1.078l.127.007a1.193 1.193 0 0 1 1.074 1.308l-1.911 19.109a1.19 1.19 0 0 1 -1.187 1.077z" style="fill: rgb(172, 148, 250);"/>
  <path d="m2.444 17.494a1.194 1.194 0 1 1 0-2.388h19.112a1.194 1.194 0 0 1 0 2.388z" style="fill: rgb(132, 0, 172);"/>
  <path d="m15.71 22.744a1.193 1.193 0 0 1 -1.076-1.308l1.911-19.109a1.183 1.183 0 0 1 1.175-1.078l.127.007a1.193 1.193 0 0 1 1.074 1.308l-1.911 19.109a1.189 1.189 0 0 1 -1.187 1.077z" style="fill: rgb(172, 148, 250);"/>
  <path d="m6.289 9.372.705-7.046a1.182 1.182 0 0 1 1.174-1.076l.126.01a1.133 1.133 0 0 1 .8.432 1.142 1.142 0 0 1 .262.874l-.676 6.806z" style="fill: rgb(172, 148, 250);"/>
</svg>