<svg viewBox="0 0 24 24" xmlns="http://www.w3.org/2000/svg">
    <path fill-rule="evenodd" d="M4.5 3c-.28 0-.5.22-.5.5v11c0 .27.22.5.5.5H10c.74 0 1.38.4 1.73 1H3.49c-.28 0-.5-.23-.5-.5V5c-.56 0-1 .44-1 1v10c0 .55.44 1 1 1h7c0 .55.44 1 1 1h2c.55 0 1-.45 1-1h7c.55 0 1-.45 1-1V6c0-.56-.45-1-1-1v10.5c0 .27-.23.5-.5.5h-8.24c.34-.6.99-1 1.73-1h5.5c.27 0 .5-.23.5-.5v-11c0-.28-.23-.5-.5-.5h-3.5v9.51c0 .17-.22.26-.35.14l-.66-.66 -.66.65c-.13.12-.35.03-.35-.15V2.97c-1.11 0-2 .89-2 2 0-1.11-.9-2-2-2Zm-.64 16.27l-.5 1c-.17.33.07.72.44.72h1.88c.18 0 .36-.11.44-.28l.5-1c.16-.34-.08-.73-.45-.73H4.28c-.19 0-.37.1-.45.27Zm16.27 0l.5 1c.16.33-.08.72-.45.72h-1.89c-.19 0-.37-.11-.45-.28l-.5-1c-.17-.34.07-.73.44-.73h1.88c.18 0 .36.1.44.27Z"/>
</svg>
