<svg viewBox="0.132 0.476 71.828 65.298" xmlns="http://www.w3.org/2000/svg">
  <g id="Layer_25" data-name="Layer 25" style="" transform="matrix(1.088296, 0, 0, 1.088296, -3.133064, -6.053484)">
    <path d="m17 20a4.00458 4.00458 0 0 1 -4-4v-6a4 4 0 0 1 8 0v2h12a1 1 0 0 1 0 2h-13a1 1 0 0 1 -1-1v-3a2 2 0 0 0 -4 0v6a2.002 2.002 0 0 0 2 2 1 1 0 0 1 0 2z"/>
    <path d="m64 12h-5v-2a4 4 0 0 0 -8 0v2h-11v-2a4 4 0 0 0 -8 0v6a4.00458 4.00458 0 0 0 4 4 1 1 0 0 0 0-2 2.002 2.002 0 0 1 -2-2v-6a2 2 0 0 1 4 0v3a1 1 0 0 0 1 1h12v2a3.99891 3.99891 0 0 0 4 4 1 1 0 0 0 0-2 2.00591 2.00591 0 0 1 -2-2v-6a2 2 0 0 1 4 0v3a1.003 1.003 0 0 0 1 1h6a3.00879 3.00879 0 0 1 3 3v8h-2a1 1 0 0 0 -1-1h-1a1 1 0 0 0 -1 1h-2a1 1 0 0 0 -1-1h-8a1 1 0 0 0 -1 1h-2a1.003 1.003 0 0 0 -1-1h-42v-7a3.00879 3.00879 0 0 1 3-3h6a1 1 0 0 0 0-2h-6a5.00181 5.00181 0 0 0 -5 5v44a5.00181 5.00181 0 0 0 5 5h56a5.00181 5.00181 0 0 0 5-5v-44a5.00181 5.00181 0 0 0 -5-5zm-13 34h12a1 1 0 0 1 0 2h-12a1 1 0 0 1 0-2zm0 3h12a1 1 0 0 1 0 2h-12a1 1 0 0 1 0-2zm0 3h12a1 1 0 0 1 0 2h-12a1 1 0 0 1 0-2zm-3 12h-2v-38h2zm-27-7h-12a1 1 0 0 1 0-2h12a1 1 0 0 1 0 2zm1 2a1.003 1.003 0 0 1 -1 1h-12a1 1 0 0 1 0-2h12a1.003 1.003 0 0 1 1 1zm-1-23h-12a1 1 0 0 1 0-2h12a1 1 0 0 1 0 2zm0-3h-12a1 1 0 0 1 0-2h12a1 1 0 0 1 0 2zm0-3h-12a1 1 0 0 1 0-2h12a1 1 0 0 1 0 2zm3-4h2v38h-2zm19 16h-14a1 1 0 0 1 0-2h14a1 1 0 0 1 0 2zm1 2a1.003 1.003 0 0 1 -1 1h-14a1 1 0 0 1 0-2h14a1.003 1.003 0 0 1 1 1zm-1-5h-14a1 1 0 0 1 0-2h14a1 1 0 0 1 0 2z"/>
  </g>
</svg>
